<?xml version="1.0" encoding="utf-8"?>
<!-- Generator: Adobe Illustrator 16.0.0, SVG Export Plug-In . SVG Version: 6.00 Build 0)  -->
<!DOCTYPE svg PUBLIC "-//W3C//DTD SVG 1.1//EN" "http://www.w3.org/Graphics/SVG/1.1/DTD/svg11.dtd">
<svg version="1.1" id="Layer_1" xmlns="http://www.w3.org/2000/svg" xmlns:xlink="http://www.w3.org/1999/xlink" x="0px" y="0px"
	 width="372.862px" height="244px" viewBox="0 0 372.862 244" enable-background="new 0 0 372.862 244" xml:space="preserve">
<path fill-rule="evenodd" clip-rule="evenodd" fill="#0EA5DB" d="M372.862,166.07"/>
<path fill-rule="evenodd" clip-rule="evenodd" fill="#0EA5DB" d="M372.862,167.07"/>
<g id="XMLID_17_">
	<g id="XMLID_19_" opacity="0.5">
		<g id="XMLID_20_">
			<path d="M106.247,63.166c0.201-0.7,0.711-1.13,1.471-1.271c2.5-0.47,5.01-0.959,7.51-1.47c1.199-0.239,1.279-0.33,0.98-1.52
				c-0.541-2.14-1.07-4.28-1.74-6.38c-0.52-1.61-0.35-3.17-0.029-4.75c0.488-2.431,1.969-4.4,3.43-6.25
				c3.1-3.92,7.24-6.24,12.24-6.99c2.16-0.32,4.27-0.1,6.289,0.65c3.971,1.489,6.609,4.56,8.779,7.989
				c2.391,3.78,3.621,8.11,5.191,12.261c1.25,3.31,1.85,6.739,2.209,10.239c0.07,0.63,0.461,1.23,0.711,1.851
				c-0.131,0.079-0.189,0.09,0.02,0.04c0,0,22,18.85,25.67,33.85s6.77,24.05,6.77,24.05l2.9,12.951l2,12.67l2.999,14l4.281,13.33
				l1.72,9l0.17,7.729c-2.34-0.35-4.421-1.67-6.82-1.979c-1.299-0.17-2.549-0.68-3.85-0.871c-1.66-0.25-3.35-0.279-5.01-0.52
				c-1.16-0.16-2.311-0.311-3.49-0.34c-1.6-0.029-3.189-0.311-4.779-0.529c-1.01-0.141-1.68-0.84-2.201-1.65
				c-0.119-0.18-0.09-0.59,0.041-0.77c1.109-1.58,1.85-3.271,2.311-5.031c0.488-1.879,0.67-3.84,0.639-5.84
				c-0.029-2.17-0.379-4.35-0.73-6.5c-0.549-3.391-0.699-6.811-0.648-10.23c0.029-2.068,0.199-4.148,0.479-6.209
				c0.371-2.73,0.801-5.471,1.41-8.16c0.682-3.02,1.641-5.99,2.381-9c0.609-2.48,0.17-4.811-1.41-6.871
				c-1.16-1.5-3.051-1.699-4.211-0.29c-1.5,1.83-3.029,3.661-3.379,6.151c-0.131,0.959-0.381,1.91-0.631,2.84
				c-1.039,3.9-0.818,7.83-0.369,11.76c0.369,3.17,0.561,6.35,0.26,9.529c-0.23,2.381-0.57,4.75-0.801,7.141
				c-0.51,5.189,1.73,9.51,4.42,13.68c0.311,0.49,0.602,0.98,0.9,1.48c-2.139-1.779-4.199-3.58-6.18-5.449
				c-2.609-2.461-5.299-4.842-7.699-7.48c-2.66-2.92-5.631-5.371-9.18-7.08c-0.41-0.201-0.691-0.439-0.871-0.73
				c-0.109-0.17-0.189-0.359-0.23-0.57c-0.049-0.219-0.068-0.449-0.059-0.709c0.029-1.5-0.041-3-0.051-4.5
				c-0.02-2.4-0.25-4.82,0.041-7.18c0.578-4.83,2.029-9.471,3.898-13.941c1.42-3.39,3.08-6.69,5.15-9.76
				c0.99-1.46,1.961-2.931,2.91-4.41c1.449-2.26,2.91-4.5,4.291-6.8c0.77-1.29,0.42-2.5-0.672-3.54
				c-1.898-1.811-5.379-1.45-6.729,0.56c-2.021,2.98-4.35,5.721-5.791,9.101c-2.059,4.8-4.02,9.63-4.859,14.811
				c-0.98,6.061-1.529,12.16-1.15,18.311c0.189,2.988,0.701,5.879,1.93,8.539c0.09,0.199,0.18,0.391,0.281,0.59
				c0.359,0.711,0.779,1.42,1.26,2.1c0.18,0.26,0.279,0.561,0.42,0.84c-0.18,0.01-0.27-0.02-0.301-0.08
				c-0.859-1.469-1.719-2.939-2.58-4.41c-0.109-0.18-0.219-0.359-0.359-0.51c-2.27-2.439-4.52-4.92-6.85-7.299
				c-1.23-1.26-2.531-2.451-3.93-3.52c-1.691-1.281-3.561-2.32-5.25-3.611c-1.73-1.32-3.07-3.02-3.891-5.08
				c-0.311-0.799-0.26-1.5,0.449-2.049c1.281-1,1.84-2.42,2.291-3.891c0.969-3.221,1.85-6.471,2.869-9.681
				c0.891-2.78,1.721-5.61,2.93-8.25c1.432-3.13,3.182-6.11,4.891-9.09c2-3.49,4.43-6.66,7.48-9.311
				c1.02-0.88,2.02-1.77,3.029-2.649c1.109-0.97,1.16-2.33,0.051-3.26c-1.201-1.011-2.871-1.33-4.35-0.29
				c-2,1.399-3.771,3.029-5.33,4.899c-0.57,0.681-1.23,1.351-1.57,2.141l-8.91,10.17c-2.121,2.56-4.189,5.13-6.189,7.75
				c-1.211,1.59-2.352,3.239-3.42,4.92c-0.881,1.38-1.58,2.859-2.41,4.26c-0.33,0.55-0.791,1.01-1.191,1.521
				c1.25-2.931,1.551-5.921,0.961-8.94c-0.57-2.91-1.561-5.74-2.1-8.66c-0.471-2.6-1.621-4.85-2.83-7.13
				c-0.641-1.2-1.311-2.4-1.861-3.64c-0.6-1.351-0.439-1.641,0.861-2.29c0.229-0.11,0.459-0.271,0.609-0.46
				c1.08-1.45,2.109-2.94,3.221-4.36c1.17-1.5,2.279-3.06,3.639-4.36c2.381-2.27,4.99-4.3,7.91-5.84c4.02-2.12,8.23-3.76,12.73-4.55
				c0.91-0.16,1.801-0.41,2.68-0.67c0.84-0.25,1.041-0.9,0.41-1.4c-2.209-1.76-4.629-2.899-7.57-2.51
				c-1.959,0.26-3.74,0.96-5.459,1.93c-2.74,1.53-5.371,3.21-7.811,5.19c-1.609,1.31-3.32,2.5-4.949,3.79
				c-1.891,1.5-3.791,3-5.58,4.62c-1.65,1.49-3.15,3.16-4.75,4.71c-0.352,0.33-0.861,0.5-1.471,0.83
				c1.711-3.05,2.221-6.021,1.33-9.181c-0.27-0.939-0.49-1.89-0.699-2.84c-0.461-2.18-0.92-4.37-1.33-6.569
				c-0.25-1.32-0.512-2.641-0.58-3.98c-0.121-2.07-0.131-4.14-0.08-6.22C105.797,64.916,106.018,64.026,106.247,63.166z
				 M131.926,58.856c2.281-0.04,4.57,0,6.861-0.021c0.65,0,1.311-0.06,1.959-0.12c0.76-0.069,1.131-0.59,0.811-1.26
				c-0.561-1.22-1.119-2.45-1.85-3.57c-1.1-1.689-2.85-1.949-4.68-1.71c-1.061,0.131-2.102,0.431-3.121,0.74
				c-1,0.3-1.84,0.87-2.41,1.8c-0.869,1.41-1.789,2.811-2.789,4.391C128.627,59.006,130.278,58.886,131.926,58.856z"/>
			<path d="M157.018,42.746c1.33-4.32,3.299-8.16,7.609-10.25c0.85-0.41,1.699-0.91,2.609-1.1c2.711-0.561,5.391-0.17,7.871,0.939
				c1.959,0.88,3.789,2.05,5.648,3.141c4.211,2.46,8.471,2.729,12.72,0.18c2.352-1.41,4.771-2.47,7.531-2.87
				c2.84-0.41,5.619-0.38,8.38,0.34c5.71,1.48,9.72,5.24,13.03,9.91c1.27,1.78,2.569,3.53,3.91,5.26
				c0.879,1.141,2.039,1.63,3.549,1.32c2.021-0.41,4-0.24,5.98,0.44c1.79,0.619,3.399,1.52,5.04,2.42
				c1.77,0.989,3.33,2.149,4.67,3.689c2.38,2.73,3.939,5.86,4.399,9.439c0.4,3.2,0.521,6.44,0.761,9.671
				c0.06,0.729,0.08,1.47,0.16,2.199c0.149,1.4,0.329,2.79,0.52,4.32c-0.32-0.12-0.6-0.14-0.78-0.29
				c-1.26-1.07-2.54-2.12-3.739-3.25c-1.421-1.33-2.681-2.83-4.171-4.07c-2.449-2.06-5.329-3.33-8.399-4.22
				c-3.45-0.99-6.93-1.81-10.53-1.899c-4.459-0.12-8.89,0.18-13.31,0.789c-3.8,0.54-7.63,0.851-11.29,2.15
				c-1.25,0.44-2.35,1.05-3.26,2c-0.92,0.96-0.74,1.92,0.51,2.41c0.97,0.39,1.98,0.75,3.01,0.93c4.18,0.76,8.41,0.98,12.641,1.15
				c1.869,0.07,3.74,0.14,5.6,0.28c3.2,0.25,6.4,0.55,9.59,0.829c1.65,0.15,3.31,0.25,4.95,0.49c4.029,0.601,8.06,1.23,12.069,1.91
				c2.341,0.4,4.681,0.811,7,1.29c0.74,0.15,1.49,0.31,2.23,0.48c3.37,0.76,6.55,2.13,9.72,3.479c1.59,0.68,2.76,1.73,3.351,3.37
				c1.329,3.67,1.729,7.47,1.47,11.35c-0.3,4.49-1.44,8.82-2.66,13.12c-0.29,1-0.64,1.99-1.031,3.19
				c-0.609-0.34-1.25-0.61-1.79-0.96c-0.18-0.12-0.359-0.25-0.51-0.4c-1.08-1.02-1.93-2.28-2.99-3.33
				c-1.59-1.56-3.319-2.99-4.92-4.55c-2-1.95-3.97-3.92-6.34-5.42c-3.71-2.35-7.24-4.98-11.16-7c-3.52-1.8-7.149-3.22-11.04-3.91
				c-1.75-0.32-3.529-0.55-5.299-0.729c-2.48-0.24-4.971-0.521-7.461-0.551c-1.75-0.01-3.51,0.341-5.25,0.58
				c-0.65,0.09-1.31,0.24-1.9,0.5c-1.119,0.511-1.26,1.41-0.27,2.11c0.78,0.55,1.68,0.97,2.57,1.34
				c5.92,2.51,11.811,5.061,17.779,7.44c4.66,1.87,9.42,3.479,14.11,5.29c4.86,1.87,9.71,3.779,14.5,5.819
				c2.57,1.101,5.06,2.38,7.4,3.94c0.67,0.45,1.33,0.91,1.97,1.41c2.331,1.79,4.331,3.84,6.041,6.17
				c1.01,1.399,1.79,2.979,1.58,4.85c-0.21,1.83-1.221,3.33-2.01,4.92c-0.66,1.34-1.79,2.541-2.08,3.941
				c-0.49,2.32-1.42,4.449-2.23,6.629c-0.411,1.111-0.991,2.16-1.39,3.27c-0.13,0.342-0.061,0.852,0.12,1.172
				c0.84,1.449,1.72,2.889,2.65,4.289c0.54,0.82,0.54,1.59-0.02,2.33c-0.78,1.02-1.741,1.92-2.431,2.99
				c-1.5,2.311-2.939,4.67-4.3,7.07c-1.72,3.049-3.34,6.148-4.979,9.25c-0.551,1.029-0.48,1.119,0.479,1.6
				c0.03,0.01,0.03,0.09,0.05,0.18c-0.79,0.16-1.27-0.27-1.569-0.881c-0.11-0.219-0.21-0.449-0.311-0.68
				c-0.3-0.689-0.56-1.398-0.88-2.07c-0.75-1.6-1.55-3.158-2.31-4.76c-1.7-3.58-3.141-7.299-5.41-10.6
				c-0.67-0.969-1.351-1.949-1.97-2.949c-2.131-3.43-4.431-6.73-7.341-9.551c-2.279-2.219-4.619-4.379-7.029-6.449
				c-2.05-1.77-4.17-3.461-6.37-5.051c-1.83-1.32-3.81-2.431-5.71-3.66c-2.189-1.41-4.311-2.91-6.72-3.97
				c-3.171-1.391-6.41-2.511-9.851-2.99c-1.3-0.19-2.449,0.34-2.91,1.28c-0.43,0.89-0.119,1.97,0.84,2.899
				c0.101,0.101,0.19,0.19,0.291,0.271c0.91,0.68,1.779,1.42,2.74,2c3.869,2.35,7.77,4.66,11.67,6.951
				c2.66,1.559,5.42,2.949,7.93,4.77c0.66,0.48,1.34,0.93,2.01,1.4c3.77,2.639,7.55,5.289,10.74,8.648
				c2.079,2.191,4.09,4.451,6.119,6.701c1.32,1.469,2.66,2.92,3.9,4.449c0.91,1.121,1.62,2.4,2.49,3.551
				c2.2,2.9,4.22,5.91,5.87,9.15c0.239,0.459,0.47,0.93,0.689,1.398c0.021,0.031,0.03,0.07,0.05,0.102
				c0.48,1.029,0.98,2.039,1.551,3.219c-0.58,0.35-1.16,0.83-1.82,1.09c-1.98,0.76-3.49,2.09-4.86,3.65
				c-2.39,2.73-4.8,5.439-7.239,8.121c-1.29,1.408-2.761,2.6-4.66,3.109c-0.32,0.09-0.66,0.109-1.07,0.17
				c0.56-0.73,1.15-1.26,1.44-1.92c0.46-1.051,0.79-2.109,0.989-3.201c0.021-0.09,0.03-0.18,0.04-0.279h0.011
				c0.229-1.33,0.27-2.689,0.13-4.08c-0.19-2.01-0.29-4.049-0.15-6.061c0.16-2.219-0.08-4.33-0.95-6.33
				c-1.739-4.01-3.279-8.109-5.76-11.75c-1.47-2.148-2.779-4.42-4.38-6.459c-2.36-3.01-5.319-5.471-8.22-7.93
				c-0.92-0.781-1.86-1.611-3.21-1.73c-2.38-0.211-4.75-0.58-7.13-0.789c-0.87-0.08-1.801,0-2.631,0.229
				c-1.09,0.301-1.35,1.041-0.64,1.93c0.851,1.041,1.841,2.012,2.9,2.852c2.29,1.85,4.729,3.52,6.989,5.42
				c3.561,3,7,6.119,9.99,9.74c2.75,3.34,5.34,6.719,7.12,10.729c1.23,2.76,2.3,5.541,2.92,8.48c0.33,1.561,0.44,3.17,0.53,4.76
				c0.01,0.25,0.01,0.439,0,0.59c-0.021,0.08-0.03,0.15-0.05,0.211c-0.12,0.289-0.431,0.27-1.101,0.18
				c-0.479-0.061-0.99-0.051-1.479-0.01c-1.34,0.109-2.67,0.23-4,0.4c-0.64,0.08-1.261,0.27-1.87,0.449
				c-0.83,0.24-1.63,0.67-2.47,0.77c-3.091,0.391-6.11,1.01-9.05,2.01c-0.811,0.271-1.58,0.691-2.311,1.121
				c-1.07,0.619-2.109,1.299-3.14,1.98c-0.761,0.51-1.591,0.959-2.22,1.609c-0.811,0.82-1.42,1.83-2.141,2.73
				c-0.46,0.57-0.98,1.08-1.48,1.619c-0.08-0.049-0.159-0.09-0.239-0.141c1.25-2.809,1.59-5.75,1.43-8.83l-0.17-7.729l-1.72-9
				l-4.28-13.33l-3.001-14l-1.999-12.67l-2.9-12.951c0,0-3.1-9.05-6.77-24.05s-24.25-33.82-24.25-33.82
				c-0.01-0.01-0.561-0.649-0.57-0.66c0.26-0.159,0,0-0.229-0.819c-0.58-2.04-0.711-2.641-1.08-4.03
				c-0.842-3.17-1.381-6.37-1.271-9.66C155.848,49.156,156.047,45.906,157.018,42.746z M198.847,56.666
				c5.22-1.78,10.6-2.92,15.96-4.13c2.54-0.58,5.069-1.21,7.61-1.78c1.08-0.239,2.18-0.38,3.26-0.59c0.4-0.08,0.779-0.229,1.17-0.35
				c-0.01-0.07-0.02-0.15-0.03-0.23c-1.42-0.46-2.851-0.89-4.25-1.399c-4.01-1.471-8.17-2.24-12.39-2.67
				c-1.061-0.11-2.16,0.01-3.23,0.119c-2.529,0.25-5.09,0.431-7.59,0.87c-3.01,0.54-5.6,1.94-7.431,4.5
				c-0.609,0.851-1.289,1.69-1.699,2.63c-0.83,1.87,0.02,3.98,2.67,4.101C194.966,57.836,196.927,57.326,198.847,56.666z
				 M209.947,113.746c4.641,2.02,9.09,4.39,13.471,6.92c4.149,2.39,8.43,4.54,12.629,6.84c2.29,1.25,4.54,2.561,6.79,3.87
				c2.37,1.38,4.71,2.781,7.07,4.17c0.13,0.08,0.27,0.131,0.62,0.301c-1.05-1.371-1.93-2.57-2.88-3.721
				c-1.101-1.34-2.25-2.64-3.42-3.93c-0.49-0.54-1.12-0.96-1.61-1.5c-3.16-3.54-6.8-6.511-10.75-9.11
				c-2.69-1.76-5.539-3.25-8.52-4.46c-2.49-1-4.95-2.08-7.48-2.97c-3.729-1.311-7.52-2.4-11.51-2.57c-0.891-0.04-1.92-0.1-2.21,0.93
				c-0.26,0.96,0.61,1.551,1.33,1.94C205.597,111.605,207.727,112.776,209.947,113.746z"/>
			<path d="M157.458,67.526c-0.051,0.029-0.08,0.05-0.1,0.06c0.02,0,0.059-0.01,0.119-0.02
				C157.467,67.556,157.467,67.536,157.458,67.526z"/>
		</g>
	</g>
	<g id="XMLID_18_">
		<path d="M188.561,49.844c0.051,2.08,0.041,4.149-0.08,6.22c-0.068,1.34-0.33,2.66-0.58,3.98c-0.41,2.199-0.869,4.39-1.33,6.569
			c-0.209,0.95-0.43,1.9-0.699,2.84c-0.891,3.16-0.381,6.131,1.33,9.181c-0.609-0.33-1.119-0.5-1.471-0.83
			c-1.6-1.55-3.1-3.22-4.75-4.71c-1.789-1.62-3.689-3.12-5.58-4.62c-1.629-1.29-3.34-2.48-4.949-3.79
			c-2.439-1.98-5.07-3.66-7.811-5.19c-1.719-0.97-3.5-1.67-5.459-1.93c-2.941-0.39-5.361,0.75-7.57,2.51
			c-0.631,0.5-0.43,1.15,0.41,1.4c0.879,0.26,1.77,0.51,2.68,0.67c4.5,0.79,8.711,2.43,12.73,4.55c2.92,1.54,5.529,3.57,7.91,5.84
			c1.359,1.301,2.469,2.86,3.639,4.36c1.111,1.42,2.141,2.91,3.221,4.36c0.15,0.189,0.381,0.35,0.609,0.46
			c1.301,0.649,1.461,0.939,0.861,2.29c-0.551,1.239-1.221,2.439-1.861,3.64c-1.209,2.28-2.359,4.53-2.83,7.13
			c-0.539,2.92-1.529,5.75-2.1,8.66c-0.59,3.02-0.289,6.01,0.961,8.94c-0.4-0.511-0.861-0.971-1.191-1.521
			c-0.83-1.4-1.529-2.88-2.41-4.26c-1.068-1.681-2.209-3.33-3.42-4.92c-2-2.62-4.068-5.19-6.189-7.75l-8.91-10.17
			c-0.34-0.79-1-1.46-1.57-2.141c-1.559-1.87-3.33-3.5-5.33-4.899c-1.479-1.04-3.148-0.721-4.35,0.29
			c-1.109,0.93-1.059,2.29,0.051,3.26c1.01,0.88,2.01,1.77,3.029,2.649c3.051,2.65,5.48,5.82,7.48,9.311
			c1.709,2.979,3.459,5.96,4.891,9.09c1.209,2.64,2.039,5.47,2.93,8.25c1.02,3.21,1.9,6.46,2.869,9.68
			c0.451,1.471,1.01,2.891,2.291,3.891c0.709,0.549,0.76,1.25,0.449,2.049c-0.82,2.061-2.16,3.76-3.891,5.08
			c-1.689,1.291-3.559,2.33-5.25,3.611c-1.398,1.068-2.699,2.26-3.93,3.52c-2.33,2.379-4.58,4.859-6.85,7.299
			c-0.141,0.15-0.25,0.33-0.359,0.51c-0.861,1.471-1.721,2.941-2.58,4.41c-0.031,0.061-0.121,0.09-0.301,0.08
			c0.141-0.279,0.24-0.58,0.42-0.84c0.48-0.68,0.9-1.389,1.26-2.1c0.102-0.199,0.191-0.391,0.281-0.59
			c1.229-2.66,1.74-5.551,1.93-8.539c0.379-6.15-0.17-12.25-1.15-18.311c-0.84-5.18-2.801-10.01-4.859-14.81
			c-1.441-3.38-3.77-6.12-5.791-9.101c-1.35-2.01-4.83-2.37-6.729-0.56c-1.092,1.04-1.441,2.25-0.672,3.54
			c1.381,2.3,2.842,4.54,4.291,6.8c0.949,1.479,1.92,2.95,2.91,4.41c2.07,3.069,3.73,6.37,5.15,9.759
			c1.869,4.471,3.32,9.111,3.898,13.941c0.291,2.359,0.061,4.779,0.041,7.18c-0.01,1.5-0.08,3-0.051,4.5
			c0.01,0.26-0.01,0.49-0.059,0.709c-0.041,0.211-0.121,0.4-0.23,0.57c-0.18,0.291-0.461,0.529-0.871,0.73
			c-3.549,1.709-6.52,4.16-9.18,7.08c-2.4,2.639-5.09,5.02-7.699,7.48c-1.98,1.869-4.041,3.67-6.18,5.449
			c0.299-0.5,0.59-0.99,0.9-1.48c2.689-4.17,4.93-8.49,4.42-13.68c-0.23-2.391-0.57-4.76-0.801-7.141
			c-0.301-3.18-0.109-6.359,0.26-9.529c0.449-3.93,0.67-7.859-0.369-11.76c-0.25-0.93-0.5-1.881-0.631-2.84
			c-0.35-2.49-1.879-4.32-3.379-6.15c-1.16-1.409-3.051-1.21-4.211,0.29c-1.58,2.061-2.02,4.39-1.41,6.87
			c0.74,3.01,1.699,5.98,2.381,9c0.609,2.689,1.039,5.43,1.41,8.16c0.279,2.061,0.449,4.141,0.479,6.209
			c0.051,3.42-0.1,6.84-0.648,10.23c-0.352,2.15-0.701,4.33-0.73,6.5c-0.031,2,0.15,3.961,0.639,5.84
			c0.461,1.76,1.201,3.451,2.311,5.031c0.131,0.18,0.16,0.59,0.041,0.77c-0.521,0.811-1.191,1.51-2.201,1.65
			c-1.59,0.219-3.18,0.5-4.779,0.529c-1.18,0.029-2.33,0.18-3.49,0.34c-1.66,0.24-3.35,0.27-5.01,0.52
			c-1.301,0.191-2.551,0.701-3.85,0.871c-2.399,0.309-4.48,1.629-6.82,1.979l0.17-7.729l1.72-9l4.281-13.33l2.999-14l2-12.67
			l2.9-12.95c0,0,3.1-9.05,6.77-24.05s25.67-33.85,25.67-33.85c0.209,0.05,0.15,0.039,0.02-0.04c0.25-0.62,0.641-1.221,0.711-1.851
			c0.359-3.5,0.959-6.93,2.209-10.24c1.57-4.149,2.801-8.479,5.191-12.26c2.17-3.43,4.809-6.5,8.779-7.99
			c2.02-0.75,4.129-0.97,6.289-0.649c5,0.75,9.141,3.069,12.24,6.989c1.461,1.851,2.941,3.82,3.43,6.25
			c0.32,1.58,0.49,3.141-0.029,4.75c-0.67,2.101-1.199,4.24-1.74,6.38c-0.299,1.19-0.219,1.28,0.98,1.521c2.5,0.51,5.01,1,7.51,1.47
			c0.76,0.141,1.27,0.57,1.471,1.271C188.321,48.084,188.542,48.974,188.561,49.844z M167.631,43.163c-1-1.58-1.92-2.979-2.789-4.39
			c-0.57-0.93-1.41-1.5-2.41-1.8c-1.02-0.311-2.061-0.61-3.121-0.74c-1.83-0.24-3.58,0.02-4.68,1.71
			c-0.73,1.12-1.289,2.35-1.85,3.57c-0.32,0.67,0.051,1.189,0.811,1.26c0.648,0.06,1.309,0.12,1.959,0.12
			c2.291,0.02,4.58-0.021,6.861,0.02C164.061,42.943,165.711,43.063,167.631,43.163z"/>
		<path d="M138.592,36.483c0.109,3.29-0.43,6.49-1.271,9.66c-0.369,1.39-0.5,1.99-1.08,4.03c-0.229,0.819-0.488,0.66-0.229,0.819
			c-0.01,0.011-0.561,0.65-0.57,0.66c0,0-20.58,18.82-24.25,33.82s-6.77,24.05-6.77,24.05l-2.9,12.95l-1.999,12.67l-3.001,14
			l-4.28,13.33l-1.72,9l-0.17,7.729c-0.16,3.08,0.18,6.021,1.43,8.83c-0.08,0.051-0.159,0.092-0.239,0.141
			c-0.5-0.539-1.021-1.049-1.48-1.619c-0.721-0.9-1.33-1.91-2.141-2.73c-0.629-0.65-1.459-1.1-2.22-1.609
			c-1.03-0.682-2.069-1.361-3.14-1.98c-0.73-0.43-1.5-0.85-2.311-1.121c-2.939-1-5.959-1.619-9.05-2.01
			c-0.84-0.1-1.64-0.529-2.47-0.77c-0.609-0.18-1.23-0.369-1.87-0.449c-1.33-0.17-2.66-0.291-4-0.4c-0.489-0.041-1-0.051-1.479,0.01
			c-0.67,0.09-0.98,0.109-1.101-0.18c-0.02-0.061-0.029-0.131-0.05-0.211c-0.01-0.15-0.01-0.34,0-0.59
			c0.09-1.59,0.2-3.199,0.53-4.76c0.62-2.939,1.689-5.721,2.92-8.48c1.78-4.01,4.37-7.389,7.12-10.729
			c2.99-3.621,6.43-6.74,9.99-9.74c2.26-1.9,4.699-3.57,6.989-5.42c1.06-0.84,2.05-1.811,2.9-2.852c0.71-0.889,0.45-1.629-0.64-1.93
			c-0.83-0.229-1.761-0.309-2.631-0.229c-2.38,0.209-4.75,0.578-7.13,0.789c-1.35,0.119-2.29,0.949-3.21,1.73
			c-2.9,2.459-5.859,4.92-8.22,7.93c-1.601,2.039-2.91,4.311-4.38,6.459c-2.48,3.641-4.021,7.74-5.76,11.75
			c-0.87,2-1.11,4.111-0.95,6.33c0.14,2.012,0.04,4.051-0.15,6.061c-0.14,1.391-0.1,2.75,0.13,4.08h0.011
			c0.01,0.1,0.02,0.189,0.04,0.279c0.199,1.092,0.529,2.15,0.989,3.201c0.29,0.66,0.881,1.189,1.44,1.92
			c-0.41-0.061-0.75-0.08-1.07-0.17c-1.899-0.51-3.37-1.701-4.66-3.109c-2.439-2.682-4.85-5.391-7.239-8.121
			c-1.37-1.561-2.88-2.891-4.86-3.65c-0.66-0.26-1.24-0.74-1.82-1.09c0.57-1.18,1.07-2.189,1.551-3.219
			c0.02-0.031,0.029-0.07,0.05-0.102c0.22-0.469,0.45-0.939,0.689-1.398c1.65-3.24,3.67-6.25,5.87-9.15
			c0.87-1.15,1.58-2.43,2.49-3.551c1.24-1.529,2.58-2.98,3.9-4.449c2.029-2.25,4.04-4.51,6.119-6.701
			c3.19-3.359,6.971-6.01,10.74-8.648c0.67-0.471,1.35-0.92,2.01-1.4c2.51-1.82,5.27-3.211,7.93-4.77
			c3.9-2.291,7.801-4.601,11.67-6.95c0.961-0.58,1.83-1.32,2.74-2c0.101-0.08,0.19-0.17,0.291-0.271
			c0.959-0.93,1.27-2.01,0.84-2.899c-0.461-0.94-1.61-1.471-2.91-1.28c-3.44,0.479-6.68,1.6-9.851,2.99
			c-2.409,1.06-4.53,2.56-6.72,3.97c-1.9,1.229-3.88,2.34-5.71,3.659c-2.2,1.59-4.32,3.281-6.37,5.051
			c-2.41,2.07-4.75,4.23-7.029,6.449c-2.91,2.82-5.21,6.121-7.341,9.551c-0.619,1-1.3,1.98-1.97,2.949
			c-2.27,3.301-3.71,7.02-5.41,10.6c-0.76,1.602-1.56,3.16-2.31,4.76c-0.32,0.672-0.58,1.381-0.88,2.07
			c-0.101,0.23-0.2,0.461-0.311,0.68c-0.3,0.611-0.779,1.041-1.569,0.881c0.02-0.09,0.02-0.17,0.05-0.18
			c0.96-0.48,1.03-0.57,0.479-1.6c-1.64-3.102-3.26-6.201-4.979-9.25c-1.36-2.4-2.8-4.76-4.3-7.07
			c-0.69-1.07-1.651-1.971-2.431-2.99c-0.56-0.74-0.56-1.51-0.02-2.33c0.93-1.4,1.81-2.84,2.65-4.289
			c0.181-0.32,0.25-0.83,0.12-1.172c-0.399-1.109-0.979-2.158-1.39-3.27c-0.811-2.18-1.74-4.309-2.23-6.629
			c-0.29-1.4-1.42-2.602-2.08-3.941c-0.789-1.589-1.8-3.089-2.01-4.919c-0.21-1.87,0.57-3.45,1.58-4.85
			c1.71-2.33,3.71-4.38,6.041-6.17c0.64-0.5,1.3-0.96,1.97-1.41c2.341-1.561,4.83-2.84,7.4-3.94c4.79-2.04,9.64-3.949,14.5-5.819
			c4.69-1.811,9.45-3.42,14.11-5.29c5.969-2.38,11.859-4.931,17.779-7.44c0.891-0.37,1.79-0.79,2.57-1.34
			c0.99-0.7,0.85-1.6-0.27-2.11c-0.591-0.26-1.25-0.41-1.9-0.5c-1.74-0.239-3.5-0.59-5.25-0.58c-2.49,0.03-4.98,0.311-7.461,0.551
			c-1.77,0.18-3.549,0.409-5.299,0.729c-3.891,0.69-7.521,2.11-11.04,3.91c-3.92,2.02-7.45,4.65-11.16,7
			c-2.37,1.5-4.34,3.47-6.34,5.42c-1.601,1.56-3.33,2.99-4.92,4.55c-1.061,1.05-1.91,2.311-2.99,3.33c-0.15,0.15-0.33,0.28-0.51,0.4
			c-0.54,0.35-1.181,0.62-1.79,0.96c-0.391-1.2-0.741-2.19-1.031-3.19c-1.22-4.3-2.36-8.63-2.66-13.12
			c-0.26-3.88,0.141-7.68,1.47-11.35c0.591-1.64,1.761-2.69,3.351-3.37c3.17-1.35,6.35-2.72,9.72-3.479
			c0.74-0.171,1.49-0.33,2.23-0.48c2.319-0.479,4.659-0.89,7-1.29c4.01-0.68,8.04-1.31,12.069-1.91c1.641-0.24,3.3-0.34,4.95-0.49
			c3.189-0.279,6.39-0.579,9.59-0.829c1.859-0.141,3.73-0.21,5.6-0.28c4.23-0.17,8.461-0.391,12.641-1.15
			c1.029-0.18,2.04-0.54,3.01-0.93c1.25-0.49,1.43-1.45,0.51-2.41c-0.91-0.95-2.01-1.56-3.26-2c-3.66-1.3-7.49-1.61-11.29-2.15
			c-4.42-0.609-8.851-0.909-13.31-0.789c-3.601,0.09-7.08,0.909-10.53,1.899c-3.07,0.89-5.95,2.16-8.399,4.22
			c-1.49,1.24-2.75,2.74-4.171,4.07c-1.199,1.13-2.479,2.18-3.739,3.25c-0.181,0.15-0.46,0.17-0.78,0.29
			c0.19-1.53,0.37-2.92,0.52-4.32c0.08-0.729,0.101-1.47,0.16-2.199c0.24-3.23,0.36-6.471,0.761-9.671
			c0.46-3.579,2.02-6.71,4.399-9.439c1.34-1.54,2.9-2.7,4.67-3.69c1.641-0.899,3.25-1.8,5.04-2.42c1.98-0.68,3.96-0.85,5.98-0.44
			c1.51,0.311,2.67-0.18,3.549-1.319c1.341-1.73,2.641-3.48,3.91-5.26c3.311-4.671,7.32-8.431,13.03-9.91
			c2.761-0.721,5.54-0.75,8.38-0.34c2.76,0.399,5.18,1.46,7.531,2.869c4.249,2.551,8.509,2.28,12.72-0.18
			c1.859-1.09,3.689-2.26,5.648-3.14c2.48-1.11,5.16-1.5,7.871-0.94c0.91,0.19,1.76,0.69,2.609,1.101
			c4.311,2.09,6.279,5.93,7.609,10.25C138.292,29.963,138.491,33.213,138.592,36.483z M101.442,41.793c2.65-0.12,3.5-2.229,2.67-4.1
			c-0.41-0.94-1.09-1.78-1.699-2.63c-1.831-2.561-4.421-3.96-7.431-4.5c-2.5-0.44-5.061-0.62-7.59-0.87
			c-1.07-0.11-2.17-0.23-3.23-0.12c-4.22,0.43-8.38,1.2-12.39,2.67c-1.399,0.51-2.83,0.94-4.25,1.4
			c-0.011,0.08-0.021,0.16-0.03,0.229c0.391,0.12,0.77,0.271,1.17,0.351c1.08,0.21,2.18,0.35,3.26,0.59
			c2.541,0.57,5.07,1.2,7.61,1.78c5.36,1.21,10.74,2.35,15.96,4.13C97.412,41.384,99.373,41.894,101.442,41.793z M90.862,94.514
			c0.72-0.39,1.59-0.98,1.33-1.94c-0.29-1.029-1.319-0.97-2.21-0.93c-3.99,0.17-7.78,1.26-11.51,2.57
			c-2.53,0.89-4.99,1.97-7.48,2.97c-2.98,1.21-5.829,2.7-8.52,4.46c-3.95,2.6-7.59,5.57-10.75,9.11c-0.49,0.54-1.12,0.96-1.61,1.5
			c-1.17,1.29-2.319,2.59-3.42,3.93c-0.95,1.149-1.83,2.349-2.88,3.72c0.351-0.17,0.49-0.221,0.62-0.301
			c2.36-1.389,4.7-2.789,7.07-4.169c2.25-1.31,4.5-2.62,6.79-3.87c4.199-2.3,8.479-4.45,12.629-6.84
			c4.381-2.53,8.83-4.9,13.471-6.92C86.612,96.834,88.742,95.663,90.862,94.514z"/>
		<path d="M136.881,51.584c0.051,0.029,0.08,0.05,0.1,0.06c-0.02,0-0.059-0.01-0.119-0.02
			C136.872,51.613,136.872,51.594,136.881,51.584z"/>
	</g>
</g>
<g>
	<path d="M250.954,234.748h-37.762l9.833-14.161l-0.196-111.32l-9.44-14.751l27.339-7.277v133.349L250.954,234.748z"/>
	<path d="M310.105,111.214c3.669,0,7.308,0.624,10.915,1.868c3.605,1.248,6.816,3.313,9.637,6.195
		c2.818,2.887,5.08,6.589,6.786,11.112c1.702,4.524,2.558,10.065,2.558,16.62v52.906l10.029,14.161h-37.369l9.441-14.161v-46.22
		c0-5.636-0.56-10.227-1.672-13.767c-1.115-3.541-2.592-6.294-4.426-8.261c-1.837-1.967-3.868-3.311-6.096-4.032
		c-2.231-0.72-4.396-1.082-6.492-1.082c-5.506,0-10.393,1.444-14.652,4.327c-4.263,2.886-8.49,6.294-12.686,10.228v58.807
		l10.227,14.161h-37.762l9.834-14.161l-0.197-111.517l-9.243-14.751l27.142-7.081v59.595c4.456-4.327,9.767-7.898,15.932-10.72
		C298.171,112.625,304.204,111.214,310.105,111.214z"/>
</g>
</svg>
